<svg xmlns="http://www.w3.org/2000/svg" width="51" height="15" fill="none" viewBox="0 0 51 15"><path fill="#3C85FF" d="M5.754 1.816L4.732 6.576C5.236 6.56667 5.67467 6.45 6.048 6.226C6.42133 6.002 6.734 5.71733 6.986 5.372C7.238 5.02667 7.42467 4.644 7.546 4.224C7.66733 3.804 7.728 3.39333 7.728 2.992C7.728 2.73067 7.69533 2.47867 7.63 2.236C7.56467 1.99333 7.44333 1.78333 7.266 1.606C7.098 1.41933 6.86933 1.27467 6.58 1.172C6.29067 1.06 5.922 1.004 5.474 1.004C4.998 1.004 4.54067 1.08333 4.102 1.242C3.66333 1.39133 3.276 1.61533 2.94 1.914C2.61333 2.21267 2.34733 2.58133 2.142 3.02C1.946 3.44933 1.848 3.94867 1.848 4.518C1.848 4.826 1.88533 5.05467 1.96 5.204C2.03467 5.35333 2.09533 5.45133 2.142 5.498C1.722 5.498 1.39067 5.40467 1.148 5.218C0.905333 5.022 0.784 4.686 0.784 4.21C0.784 3.71533 0.928667 3.244 1.218 2.796C1.50733 2.348 1.88533 1.956 2.352 1.62C2.828 1.27467 3.36467 1.004 3.962 0.807999C4.56867 0.602666 5.18 0.499999 5.796 0.499999C6.33733 0.499999 6.80867 0.579333 7.21 0.737999C7.61133 0.887333 7.94267 1.088 8.204 1.34C8.47467 1.592 8.67533 1.886 8.806 2.222C8.93667 2.558 9.002 2.908 9.002 3.272C9.002 3.71067 8.90867 4.154 8.722 4.602C8.53533 5.04067 8.26933 5.442 7.924 5.806C7.57867 6.16067 7.154 6.45 6.65 6.674C6.146 6.898 5.58133 7.01 4.956 7.01H4.648L3.794 11H2.254L4.186 2.026L5.754 1.816ZM9.7102 1.984C9.7102 1.732 9.79887 1.51267 9.9762 1.326C10.1535 1.13933 10.3729 1.046 10.6342 1.046C10.8862 1.046 11.1055 1.13933 11.2922 1.326C11.4789 1.51267 11.5722 1.732 11.5722 1.984C11.5722 2.24533 11.4789 2.46467 11.2922 2.642C11.1055 2.81933 10.8862 2.908 10.6342 2.908C10.3729 2.908 10.1535 2.81933 9.9762 2.642C9.79887 2.46467 9.7102 2.24533 9.7102 1.984ZM11.0122 4L9.9902 8.76C9.94354 8.94667 9.9202 9.15667 9.9202 9.39C9.9202 9.54867 9.9482 9.69333 10.0042 9.824C10.0602 9.95467 10.1769 10.02 10.3542 10.02C10.5782 10.02 10.8022 9.88467 11.0262 9.614C11.2595 9.34333 11.4789 8.97 11.6842 8.494H12.2022C11.9782 9.082 11.7542 9.54867 11.5302 9.894C11.3062 10.23 11.0869 10.4867 10.8722 10.664C10.6669 10.8413 10.4662 10.9533 10.2702 11C10.0835 11.056 9.91554 11.084 9.7662 11.084C9.52354 11.084 9.32287 11.042 9.1642 10.958C9.00554 10.874 8.87954 10.762 8.7862 10.622C8.69287 10.482 8.62287 10.3187 8.5762 10.132C8.53887 9.94533 8.5202 9.74467 8.5202 9.53C8.5202 9.362 8.52954 9.18933 8.5482 9.012C8.5762 8.83467 8.60887 8.662 8.6462 8.494L9.5982 4H11.0122ZM14.1454 3.482L13.9074 4.56C14.122 4.37333 14.36 4.224 14.6214 4.112C14.892 3.99067 15.1814 3.93 15.4894 3.93C15.732 3.93 15.956 3.972 16.1614 4.056C16.3667 4.14 16.544 4.27533 16.6934 4.462C16.8427 4.64867 16.9594 4.89133 17.0434 5.19C17.1274 5.47933 17.1694 5.83867 17.1694 6.268C17.1694 6.56667 17.146 6.89333 17.0994 7.248C17.0527 7.60267 16.978 7.962 16.8754 8.326C16.7727 8.68067 16.6327 9.026 16.4554 9.362C16.2874 9.68867 16.0774 9.98267 15.8254 10.244C15.5734 10.496 15.2794 10.7013 14.9434 10.86C14.6074 11.0093 14.2247 11.084 13.7954 11.084C13.5434 11.084 13.324 11.0233 13.1374 10.902C12.96 10.7713 12.806 10.6033 12.6754 10.398L11.8774 14.15L10.3934 14.5L12.7314 3.482H14.1454ZM14.8174 4.84C14.6027 4.84 14.402 4.90067 14.2154 5.022C14.038 5.14333 13.87 5.31133 13.7114 5.526L12.8154 9.698C12.918 9.87533 13.0394 10.0013 13.1794 10.076C13.3287 10.1507 13.4594 10.188 13.5714 10.188C13.9914 10.188 14.3414 10.048 14.6214 9.768C14.9014 9.47867 15.1254 9.13333 15.2934 8.732C15.4707 8.32133 15.5967 7.89667 15.6714 7.458C15.746 7.01 15.7834 6.62267 15.7834 6.296C15.7834 6.016 15.7554 5.78267 15.6994 5.596C15.6434 5.40933 15.5687 5.26 15.4754 5.148C15.382 5.036 15.2794 4.95667 15.1674 4.91C15.0554 4.86333 14.9387 4.84 14.8174 4.84ZM22.5153 5.372C22.5153 6.16533 22.2026 6.80933 21.5773 7.304C20.9613 7.78933 20.1073 8.088 19.0153 8.2C19.0059 8.27467 19.0013 8.34933 19.0013 8.424C19.0013 8.48933 19.0013 8.55933 19.0013 8.634C19.0013 9.11 19.0899 9.46 19.2673 9.684C19.4539 9.908 19.7713 10.02 20.2193 10.02C20.8539 10.02 21.4093 9.796 21.8853 9.348C21.8293 9.69333 21.7266 9.978 21.5773 10.202C21.4279 10.426 21.2506 10.6033 21.0453 10.734C20.8399 10.8647 20.6066 10.9533 20.3453 11C20.0933 11.056 19.8273 11.084 19.5473 11.084C19.2766 11.084 19.0153 11.042 18.7633 10.958C18.5206 10.874 18.3013 10.7433 18.1053 10.566C17.9186 10.3887 17.7646 10.16 17.6433 9.88C17.5313 9.59067 17.4753 9.24533 17.4753 8.844C17.4753 8.58267 17.5033 8.27933 17.5593 7.934C17.6153 7.58867 17.6993 7.234 17.8113 6.87C17.9326 6.506 18.0866 6.14667 18.2733 5.792C18.4693 5.43733 18.6979 5.12467 18.9593 4.854C19.2206 4.574 19.5193 4.35 19.8553 4.182C20.2006 4.014 20.5879 3.93 21.0173 3.93C21.2133 3.93 21.3999 3.95333 21.5773 4C21.7546 4.03733 21.9133 4.112 22.0533 4.224C22.1933 4.32667 22.3053 4.47133 22.3893 4.658C22.4733 4.84467 22.5153 5.08267 22.5153 5.372ZM21.1433 4.616C20.8819 4.616 20.6393 4.70933 20.4153 4.896C20.1913 5.07333 19.9906 5.30667 19.8133 5.596C19.6453 5.88533 19.4959 6.212 19.3653 6.576C19.2439 6.93067 19.1506 7.29 19.0853 7.654C19.8693 7.53267 20.4946 7.25733 20.9613 6.828C21.4279 6.39867 21.6613 5.86667 21.6613 5.232C21.6613 5.07333 21.6286 4.93333 21.5633 4.812C21.5073 4.68133 21.3673 4.616 21.1433 4.616Z"/><path fill="#0F9D58" d="M29.875 2.152C29.875 2.58133 29.7677 2.93133 29.553 3.202C29.3383 3.46333 29.077 3.594 28.769 3.594C28.6383 3.594 28.531 3.57067 28.447 3.524C28.3723 3.47733 28.2977 3.40267 28.223 3.3C28.4097 3.188 28.5637 3.02 28.685 2.796C28.8063 2.56267 28.867 2.32 28.867 2.068C28.867 1.93733 28.8483 1.80667 28.811 1.676C28.7737 1.54533 28.7083 1.43333 28.615 1.34C28.531 1.23733 28.4143 1.158 28.265 1.102C28.1157 1.03667 27.929 1.004 27.705 1.004C27.1917 1.004 26.7763 1.13 26.459 1.382C26.151 1.62467 25.997 1.984 25.997 2.46C25.997 2.81467 26.0717 3.118 26.221 3.37C26.3797 3.622 26.5757 3.86 26.809 4.084C27.0423 4.308 27.2943 4.532 27.565 4.756C27.845 4.98 28.1017 5.23667 28.335 5.526C28.5683 5.806 28.7597 6.13267 28.909 6.506C29.0677 6.87933 29.147 7.332 29.147 7.864C29.147 8.43333 29.0537 8.93267 28.867 9.362C28.6803 9.782 28.4237 10.132 28.097 10.412C27.7797 10.692 27.4063 10.902 26.977 11.042C26.557 11.182 26.1137 11.252 25.647 11.252C25.283 11.252 24.9283 11.21 24.583 11.126C24.247 11.042 23.9437 10.9067 23.673 10.72C23.4023 10.524 23.183 10.2767 23.015 9.978C22.8563 9.67933 22.777 9.32 22.777 8.9C22.777 8.51733 22.8377 8.18133 22.959 7.892C23.0897 7.60267 23.253 7.36467 23.449 7.178C23.645 6.982 23.8597 6.83733 24.093 6.744C24.3263 6.64133 24.5503 6.59 24.765 6.59C25.0077 6.59 25.2223 6.66 25.409 6.8C25.605 6.94 25.731 7.178 25.787 7.514C25.591 7.514 25.395 7.542 25.199 7.598C25.003 7.64467 24.8257 7.724 24.667 7.836C24.5083 7.93867 24.3777 8.07867 24.275 8.256C24.1723 8.43333 24.121 8.648 24.121 8.9C24.121 9.124 24.1583 9.32467 24.233 9.502C24.317 9.67933 24.4243 9.82867 24.555 9.95C24.6857 10.062 24.835 10.1507 25.003 10.216C25.1803 10.2813 25.3623 10.314 25.549 10.314C25.773 10.314 25.9923 10.2767 26.207 10.202C26.431 10.118 26.627 9.992 26.795 9.824C26.9723 9.656 27.117 9.446 27.229 9.194C27.341 8.942 27.397 8.648 27.397 8.312C27.397 7.91067 27.327 7.55133 27.187 7.234C27.047 6.90733 26.8697 6.60867 26.655 6.338C26.4403 6.058 26.207 5.792 25.955 5.54C25.7123 5.27867 25.4837 5.022 25.269 4.77C25.0543 4.50867 24.877 4.238 24.737 3.958C24.597 3.66867 24.527 3.35133 24.527 3.006C24.527 2.642 24.611 2.306 24.779 1.998C24.947 1.69 25.1757 1.42867 25.465 1.214C25.7543 0.989999 26.0903 0.817333 26.473 0.695999C26.865 0.565332 27.285 0.499999 27.733 0.499999C27.8917 0.499999 28.0923 0.518666 28.335 0.555999C28.5777 0.583999 28.811 0.654 29.035 0.766C29.2683 0.878 29.4643 1.046 29.623 1.27C29.791 1.48467 29.875 1.77867 29.875 2.152ZM34.7763 9.334C34.7763 9.53 34.8043 9.69333 34.8603 9.824C34.9163 9.95467 35.0283 10.02 35.1963 10.02C35.635 10.02 36.0737 9.51133 36.5123 8.494H37.0303C36.8063 9.082 36.5823 9.54867 36.3583 9.894C36.1343 10.2393 35.915 10.5007 35.7003 10.678C35.495 10.846 35.299 10.9533 35.1123 11C34.935 11.056 34.7763 11.084 34.6363 11.084C34.151 11.084 33.8057 10.9347 33.6003 10.636C33.395 10.328 33.2923 9.95 33.2923 9.502C33.2923 9.194 33.325 8.872 33.3903 8.536C33.465 8.2 33.5443 7.86867 33.6283 7.542C33.7123 7.21533 33.787 6.90267 33.8523 6.604C33.927 6.296 33.9643 6.016 33.9643 5.764C33.9643 5.53067 33.9223 5.344 33.8383 5.204C33.7543 5.064 33.591 4.994 33.3483 4.994C32.751 4.994 32.233 5.49333 31.7943 6.492L30.8283 11H29.4283L31.4863 1.396L32.9283 1.2L32.1023 5.05C32.2797 4.80733 32.457 4.61133 32.6343 4.462C32.8117 4.31267 32.9797 4.20067 33.1383 4.126C33.3063 4.042 33.4603 3.99067 33.6003 3.972C33.7497 3.944 33.885 3.93 34.0063 3.93C34.2863 3.93 34.5197 3.972 34.7063 4.056C34.893 4.14 35.0423 4.25667 35.1543 4.406C35.2663 4.546 35.341 4.714 35.3783 4.91C35.425 5.09667 35.4483 5.29733 35.4483 5.512C35.4483 5.82 35.411 6.142 35.3363 6.478C35.271 6.814 35.1963 7.14533 35.1123 7.472C35.0283 7.79867 34.949 8.12067 34.8743 8.438C34.809 8.75533 34.7763 9.054 34.7763 9.334ZM41.4235 5.372C41.4235 6.16533 41.1108 6.80933 40.4855 7.304C39.8695 7.78933 39.0155 8.088 37.9235 8.2C37.9142 8.27467 37.9095 8.34933 37.9095 8.424C37.9095 8.48933 37.9095 8.55933 37.9095 8.634C37.9095 9.11 37.9982 9.46 38.1755 9.684C38.3622 9.908 38.6795 10.02 39.1275 10.02C39.5755 10.02 40.0188 9.90333 40.4575 9.67C40.8962 9.43667 41.2975 9.04467 41.6615 8.494H42.1095C41.9228 8.83933 41.6988 9.17067 41.4375 9.488C41.1762 9.796 40.8868 10.0713 40.5695 10.314C40.2522 10.5473 39.9115 10.734 39.5475 10.874C39.1928 11.014 38.8288 11.084 38.4555 11.084C38.1848 11.084 37.9235 11.042 37.6715 10.958C37.4288 10.874 37.2095 10.7433 37.0135 10.566C36.8268 10.3887 36.6728 10.16 36.5515 9.88C36.4395 9.59067 36.3835 9.24533 36.3835 8.844C36.3835 8.58267 36.4115 8.27933 36.4675 7.934C36.5235 7.58867 36.6075 7.234 36.7195 6.87C36.8408 6.506 36.9948 6.14667 37.1815 5.792C37.3775 5.43733 37.6062 5.12467 37.8675 4.854C38.1288 4.574 38.4275 4.35 38.7635 4.182C39.1088 4.014 39.4962 3.93 39.9255 3.93C40.1215 3.93 40.3082 3.95333 40.4855 4C40.6628 4.03733 40.8215 4.112 40.9615 4.224C41.1015 4.32667 41.2135 4.47133 41.2975 4.658C41.3815 4.84467 41.4235 5.08267 41.4235 5.372ZM40.0515 4.616C39.7902 4.616 39.5475 4.70933 39.3235 4.896C39.0995 5.07333 38.8988 5.30667 38.7215 5.596C38.5535 5.88533 38.4042 6.212 38.2735 6.576C38.1522 6.93067 38.0588 7.29 37.9935 7.654C38.7775 7.53267 39.4028 7.25733 39.8695 6.828C40.3362 6.39867 40.5695 5.86667 40.5695 5.232C40.5695 5.07333 40.5368 4.93333 40.4715 4.812C40.4155 4.68133 40.2755 4.616 40.0515 4.616ZM46.5778 5.372C46.5778 6.16533 46.2651 6.80933 45.6398 7.304C45.0238 7.78933 44.1698 8.088 43.0778 8.2C43.0684 8.27467 43.0638 8.34933 43.0638 8.424C43.0638 8.48933 43.0638 8.55933 43.0638 8.634C43.0638 9.11 43.1524 9.46 43.3298 9.684C43.5164 9.908 43.8338 10.02 44.2818 10.02C44.7298 10.02 45.1731 9.90333 45.6118 9.67C46.0504 9.43667 46.4518 9.04467 46.8158 8.494H47.2638C47.0771 8.83933 46.8531 9.17067 46.5918 9.488C46.3304 9.796 46.0411 10.0713 45.7238 10.314C45.4064 10.5473 45.0658 10.734 44.7018 10.874C44.3471 11.014 43.9831 11.084 43.6098 11.084C43.3391 11.084 43.0778 11.042 42.8258 10.958C42.5831 10.874 42.3638 10.7433 42.1678 10.566C41.9811 10.3887 41.8271 10.16 41.7058 9.88C41.5938 9.59067 41.5378 9.24533 41.5378 8.844C41.5378 8.58267 41.5658 8.27933 41.6218 7.934C41.6778 7.58867 41.7618 7.234 41.8738 6.87C41.9951 6.506 42.1491 6.14667 42.3358 5.792C42.5318 5.43733 42.7604 5.12467 43.0218 4.854C43.2831 4.574 43.5818 4.35 43.9178 4.182C44.2631 4.014 44.6504 3.93 45.0798 3.93C45.2758 3.93 45.4624 3.95333 45.6398 4C45.8171 4.03733 45.9758 4.112 46.1158 4.224C46.2558 4.32667 46.3678 4.47133 46.4518 4.658C46.5358 4.84467 46.5778 5.08267 46.5778 5.372ZM45.2058 4.616C44.9444 4.616 44.7018 4.70933 44.4778 4.896C44.2538 5.07333 44.0531 5.30667 43.8758 5.596C43.7078 5.88533 43.5584 6.212 43.4278 6.576C43.3064 6.93067 43.2131 7.29 43.1478 7.654C43.9318 7.53267 44.5571 7.25733 45.0238 6.828C45.4904 6.39867 45.7238 5.86667 45.7238 5.232C45.7238 5.07333 45.6911 4.93333 45.6258 4.812C45.5698 4.68133 45.4298 4.616 45.2058 4.616ZM47.2941 4H47.7701L48.1901 2.068L49.6461 1.872L49.1841 4H50.2481L50.1501 4.49H49.0721L48.1621 8.76C48.1154 8.97467 48.0921 9.17533 48.0921 9.362C48.0921 9.54867 48.1247 9.70733 48.1901 9.838C48.2647 9.95933 48.4001 10.02 48.5961 10.02C48.6614 10.02 48.7267 10.0153 48.7921 10.006C48.8667 9.99667 48.9507 9.97333 49.0441 9.936C48.9321 10.384 48.7827 10.6873 48.5961 10.846C48.4094 11.0047 48.1901 11.084 47.9381 11.084C47.5367 11.084 47.2334 10.9207 47.0281 10.594C46.8227 10.2673 46.7201 9.852 46.7201 9.348C46.7201 9.21733 46.7247 9.082 46.7341 8.942C46.7527 8.79267 46.7807 8.64333 46.8181 8.494L47.6721 4.49H47.1961L47.2941 4Z"/></svg>